<?xml version="1.0" encoding="utf-8"?>
<!-- Generator: Adobe Illustrator 26.0.1, SVG Export Plug-In . SVG Version: 6.00 Build 0)  -->
<svg version="1.1" id="Layer_1" xmlns="http://www.w3.org/2000/svg" xmlns:xlink="http://www.w3.org/1999/xlink" x="0px" y="0px"
	 viewBox="0 0 400 600" style="enable-background:new 0 0 400 600;" xml:space="preserve">
<path d="M104.34,551.35l34.46-50.52c0,0,31.43-81.9,57.85-134.73c8.29-16.58,1.46-29.34-11.81-39.04
	c-12.33-9.01-30.21-15.38-46.71-19.72c-5.3-1.4-10.46-2.59-15.25-3.59c-15.35-3.21-20.7-12.34-20.7-12.34s-11.93-2.1-21.23-10.25
	c-4.34-3.81-15.37-2.68-20.5-7.32c-4.88-4.42-4.65-10.17-9.55-14.82c-3.54-3.36-12.1-11.21-15.35-14.47
	c-11.83-11.85-15.74-17.84-15.74-22.25c0-12.83-11.35-23.88-4.76-39.99s29.29,24.16,29.29,24.16l16.11,9.52l22.7,6.59l29.29,8.05
	l25.63,5.86l29.67-11.93c0,0-17.95-13.69-9.17-24.68c8.79-10.98,4.39-16.11,6.59-19.04c2.2-2.93-3.66-28.56-4.39-38.08
	s8.05-10.25,8.05-10.25s-3.66-7.32-4.39-17.57S169.99,96,169.99,96l-2.63-26.46c0,0-13.91-13.18-7.32-17.57
	c6.59-4.39,13.91,2.93,13.91,2.93s-0.73-16.11,8.05-7.32s34.04,34.34,34.04,34.34s37.29,35.38,42.26,54.34
	c4.98,18.96,3.81,25.37,0,45.59c-3.81,20.23,13.58,37.43,13.58,37.43s8.85-8.27,28.68-21.89c19.83-13.62,40.33-2.63,40.33-2.63
	s13.04,13.49,23.43,18.31c10.39,4.81,22.28,6.21,22.28,6.21s-4.08,7.38-17.15,10.63s-28.56,24.9-28.56,24.9
	s-8.97,108.84-51.99,142.05s-104.57,96.39-104.57,96.39l-21.38,16.38c0,0-16.11,0-21.97,8.79s-16.58,25.63-28.43,32.95
	S104.34,551.35,104.34,551.35z"/>
</svg>
