<svg xmlns="http://www.w3.org/2000/svg" viewBox="0 0 1044.53 1044"><defs><style>.cls-1{fill:#5ccaff;}.cls-2{fill:#0071bc;opacity:0.2;}.cls-3{fill:#12b23b;}</style></defs><g id="Layer_2" data-name="Layer 2"><g id="Layer_1-2" data-name="Layer 1"><path class="cls-1" d="M1044.53,522c0,288.29-233.71,522-522,522C277.59,1044,84.59,860.4,23.17,674.52-1.48,599.93-.18,539.52.53,522c8.78-216.5,196-522,522-522C810.82,0,1044.53,233.71,1044.53,522Z"/><circle class="cls-2" cx="506.03" cy="483.5" r="464"/><polygon class="cls-3" points="394.03 321.5 388.03 343.5 350.03 379.5 326.03 421.5 308.03 453.5 308.03 527.5 333.03 571.5 370.03 589.5 406.03 589.5 449.03 594.5 491.03 585.5 520.03 581.5 520.03 611.5 544.03 621.5 544.03 655.5 544.03 719.5 516.03 759.5 540.03 811.5 574.09 881.31 621.53 905.5 702.03 881.5 762.73 827.26 776.78 818.65 776.78 743.5 800.03 727.5 834.03 695.5 822.03 629.5 822.03 591.5 854.03 548.5 897.03 496.5 897.03 405.5 845.03 423.5 821.03 372.5 786.03 319.5 748.03 277.5 678.03 277.5 640.03 303.5 596.03 303.5 576.03 267.5 581.03 224.5 531.03 226.5 475.03 238.5 440.03 255.5 428.03 279.5 418.03 300.5 394.03 321.5"/><polygon class="cls-3" points="861.03 832.13 849.53 792 877.53 755 897.03 711.06 897.03 650.52 919.53 671 919.53 727.57 897.03 813.79 861.03 832.13"/><path class="cls-3" d="M602.53,199.26,618,215.5l7.71-16.24L655,184.5V160.74l18,8.76,7.74-8.76L662,138.5l-20.38-14.45L622,107.5l-2.21-25.92s18.45-11.92,21.83,0L645,93.5l54,20,17,11,13.76,27.63v45.3L745,215.5l22.54-24.32V145.89H800L783,186.5l17,29h31.18v49.8L796,301.5l9,15h44.5L861,327.67l9,54.83,68-11,27-84-57-41-35-40v-27l47,45,38,37,12-9-31-45c-13-14-23-29-36-43-9.66-10.37-22.34-19.63-32-30-12-9.27-22-19.73-34-29-10-7.73-22-14.27-32-22-14.61-7.77-23.39-14.23-38-22-11.72-6.23-29.27-13.77-41-20-12.45-4.27-22.55-9.73-35-14-10.88-3.73-24.12-6.27-35-10l-41-9-42,5H479l-38.57,36L426,67.5l37-5.82,34-2.18,15-7,34.85-3h25.68l.49,23-98,19-77-4-60,26-30,56.41,28,23.59v63h55l16-46-10.59-28,1.59-29,24-9,18,16,23-30.94,29,16.94,9,7,38,18h8l-11,22h13l8.84-11,18.16-13-33-22,7-16,45,15,7.5-7.77L617,162.5Z"/><path class="cls-3" d="M10.11,522,25,572.5l26,28,14,28.8,33,8.2,24,33,11,22v15.22L113,735.5l4,44,16,27.28V845.5l8,25c-9.57-11.91-19.43-22.09-29-34-6.76-8.42-13.24-18.58-20-27-8.25-11.82-16.62-24.85-25-39-7.28-12.29-12.72-24.71-20-37-6-13.08-18.11-40.13-24-59-1.4-4.48-5.74-18.28-11-39-1.8-7.08-2.95-14.15-4-18-.5-3.86-.63-4.79-2-12-.39-2-.72-8.62-1-10,0,0-1.93-10.16-3-21-.76-7.75-1.45-7.36-2-27-.21-7.54.73-14.66.5-18.63Z"/></g></g></svg>