<?xml version="1.0" encoding="utf-8"?>
<!-- Generator: Adobe Illustrator 26.0.1, SVG Export Plug-In . SVG Version: 6.00 Build 0)  -->
<svg version="1.1" id="Layer_1" xmlns="http://www.w3.org/2000/svg" xmlns:xlink="http://www.w3.org/1999/xlink" x="0px" y="0px"
	 viewBox="0 0 400 450" style="enable-background:new 0 0 400 450;" xml:space="preserve">
<style type="text/css">
	.st0{fill:#FFDE80;}
	.st1{fill:#FF6633;}
	.st2{opacity:0.25;fill:#FF6633;}
	.st3{fill:#39E3FF;}
	.st4{fill:#F96138;}
	.st5{opacity:0.26;fill:#F96138;}
	.st6{fill:#F4A795;}
	.st7{fill:#D34831;}
	.st8{opacity:0.26;fill:#FF6633;}
</style>
<polygon class="st0" points="364.9,395.14 39.34,395.14 39.34,200.03 202.12,69.57 364.9,200.03 "/>
<polygon class="st1" points="189.07,277.72 91.71,277.72 91.71,201.01 173.88,201.01 "/>
<polygon class="st2" points="195.3,281.23 97.95,281.23 97.95,204.51 180.11,204.51 "/>
<polygon class="st3" points="126.76,269.01 104.57,269.01 97.95,208.94 132.6,208.94 "/>
<polygon class="st3" points="173.88,269.01 132.6,269.01 140.39,208.94 163.76,208.94 "/>
<polygon class="st1" points="209.32,277.72 306.68,277.72 306.68,201.01 224.51,201.01 "/>
<polygon class="st2" points="217.11,281.23 312.13,281.23 312.13,203.34 231.93,203.34 "/>
<polygon class="st3" points="271.63,269.01 293.83,269.01 300.45,208.94 265.79,208.94 "/>
<polygon class="st3" points="224.51,269.01 265.79,269.01 258,208.94 234.63,208.94 "/>
<rect x="164.15" y="299.92" class="st4" width="76.72" height="95.41"/>
<rect x="172.33" y="299.92" class="st5" width="72.82" height="95.41"/>
<rect x="171.35" y="307.51" class="st6" width="62.31" height="87.82"/>
<rect x="161.42" y="395.33" class="st7" width="81.78" height="10.51"/>
<rect x="159.09" y="405.84" class="st4" width="85.67" height="10.51"/>
<circle class="st1" cx="227.62" cy="360.67" r="3.5"/>
<polygon class="st8" points="57.83,200.23 24.34,200.23 200.23,49.58 396.64,200.23 349.13,201.01 201.92,92.36 "/>
<polygon class="st1" points="39.53,200.23 3.7,200.23 200.23,34 396.64,200.23 364.7,199.84 201.92,76.78 "/>
</svg>
