<?xml version="1.0" encoding="utf-8"?>
<!-- Generator: Adobe Illustrator 26.0.1, SVG Export Plug-In . SVG Version: 6.00 Build 0)  -->
<svg version="1.1" id="Layer_1" xmlns="http://www.w3.org/2000/svg" xmlns:xlink="http://www.w3.org/1999/xlink" x="0px" y="0px"
	 viewBox="0 0 200 350" style="enable-background:new 0 0 200 350;" xml:space="preserve">
<style type="text/css">
	.st0{fill:none;stroke:#39B54A;stroke-width:3;stroke-linecap:round;stroke-linejoin:round;}
	.st1{fill:none;stroke:#F15A24;stroke-width:3;stroke-linecap:round;stroke-linejoin:round;}
</style>
<g>
	<g>
		<g>
			<g>
				<path class="st0" d="M114.04,287.68c0,0,10.52-14.12,10.84-13.87"/>
				<path class="st0" d="M128.11,189.63c4.3,3.36,30.44-53.94,37.71-48.26l-35.32,48.45c7.74,6.05,36.08-46.18,36.08-46.18
					s-34.62,45.7-33.72,46.4c8.88,6.93,34.35-43.97,34.35-43.97l-31.99,44.2l32.51-41.61c7.22,5.64-30.14,41.82-30.14,41.82
					s23.6-44.51,30.54-39.09L140,190.64l28.4-36.36l-25.9,36.4c6.1,4.77,26.05-33.34,26.05-33.34c0.34,0.27-27.23,30.22-23.41,33.21
					c0.78,0.61,23.42-29.98,23.42-29.98l-20.58,29.59c4.67,3.65,19.15-27.1,20.41-26.12l-17.27,25.35l16.78-21.47
					c1.91,1.5-13.98,19.24-13.06,19.96c0.52,0.41,11.62-15.63,11.99-15.35"/>
				<path class="st0" d="M60.37,251.88c0.49,0.39,2.65-3.39,2.65-3.39c0.37,0.29-1.82,5.58-1.82,5.58s83.75-128.88,94.27-120.66
					c0,0-106.22,112.05-93.05,122.34c0,0,82.49-133.08,95.83-122.65c0,0-101.9,118.35-94.47,124.16
					c23.81,18.6,77.79-139.04,96.94-124.08c18.4,14.37-95.5,125.49-95.5,125.49l96.88-124L66.7,260.02
					c0,0,74.92-140.65,96.63-123.69c14.81,11.57-95.13,125.01-95.13,125.01c10.05,7.85,86.51-130.73,96.21-123.15
					c11.11,8.68-94.7,124.46-94.7,124.46s73.81-139.49,95.65-122.42L71.24,263.97c0,0,41.81-81.75,55.51-71.05
					c0,0-61.86,66.22-53.99,72.36c0,0,50.23-69.76,52.88-67.69l-51.38,69.02l49.94-63.92c6.11,4.77-48.46,65.28-48.46,65.28
					l47.41-60.68c12.09,9.45-45.97,62.09-45.97,62.09c3.12,2.44,42.95-60.34,45.55-58.31c11.8,9.22-44.16,59.77-44.16,59.77
					l44.25-56.64c0,0-45.37,56.31-42.94,58.21c0,0,41.86-56.72,43.38-55.53l-42.19,57.25l42.88-54.88
					c9.89,7.73-41.92,56.9-41.92,56.9l42.78-54.76c6.07,4.74-49.6,52.26-42.58,57.75c7.5,5.86,35.2-62.33,43.58-55.78
					c5.2,4.06-46.4,62.63-46.4,62.63s46.76-61.39,47.51-60.81l-49.69,66.85l50.89-65.13c9.81,7.66-52.94,70.32-52.6,70.58
					c1.05,0.82,53.87-68.95,53.87-68.95c0.33,0.25-55.32,74.06-55.32,74.06c14.14,11.05,44.11-82.3,56.65-72.5
					c10.33,8.07-73.2,65.56-57.97,77.45c6.88,5.38,45.64-86.68,59.35-75.96c0,0-71.45,72.48-60.67,80.9l62.07-79.45
					c14.9,11.64-73.59,76.72-63.54,84.57c7.92,6.19,49.24-95.29,64.89-83.06c3.03,2.37-75,81.36-66.32,88.14
					c11.31,8.83,67.6-86.52,67.6-86.52c17.44,13.63-70.55,88.57-68.13,90.46c6.71,5.24,53.98-100.66,69.3-88.7l-68.71,91.2
					c12.68,9.91,63.13-94.36,69.71-89.22c2.93,2.29-67.85,90.1-67.85,90.1c11.99,9.36,68.14-88.01,68.53-87.71
					c4.04,3.15-65.54,87.14-65.54,87.14c3.66,2.86,40.17-77.82,52.98-67.81l-48.54,65.38c4.12,3.22,39.23-69.13,48.4-61.96
					c0,0-47.73,50.48-41,55.73c0.12,0.09,37.27-55.43,41.02-52.5"/>
				<path class="st0" d="M22.8,149.76c1.98,1.54,7.66-9.81,7.66-9.81s-10.32,14.98-9.6,15.54l14.62-18.71
					c0,0-19.64,19.54-15.35,22.89l19.13-24.48c4.08,3.19-19.37,28.05-19.37,28.05c1.31,1.02,22.69-29.05,22.69-29.05
					c3.68,2.87-22.69,32.29-22.69,32.29l25.73-32.93l-25.57,35.98c0,0,24.67-39.32,28.43-36.39l-28.16,39.29L51.2,132.9
					c6.97,5.44-31.08,41.81-30.49,42.27c1.56,1.22,27.88-46.43,33.09-42.36c5.29,4.13-32.59,44.97-32.59,44.97l35.14-44.97
					l-34.52,47.44c0,0,32.54-50.93,37.04-47.42c9.72,7.59-36.33,49.74-36.33,49.74c4.21,3.29,38.84-49.71,38.84-49.71
					c10.39,8.11-43.52,47.59-38.01,51.9c0,0,30.64-59.58,40.52-51.86l-39.58,53.9c1.9,1.49,31.5-62.12,42.08-53.86
					c5.79,4.53-41.02,55.75-41.02,55.75c10,7.81,43.52-55.7,43.52-55.7s-44.83,55.47-42.33,57.43c8.05,6.29,44.83-57.38,44.83-57.38
					S26.4,190.8,27.9,191.96c8.7,6.8,35.42-67.14,46-58.87l-44.36,60.02c5.46,4.27,45.55-60.99,46.85-59.97
					c0,0-48.93,53.79-43.07,58.37c6.28,4.91,40.82-62.02,45.56-58.32l-42.13,57.17c0,0,41.12-59.85,44.62-57.12
					c6.91,5.4-41.42,56.27-41.42,56.27c1.54,1.2,38.78-60.23,43.92-56.21c4.95,3.87-40.88,55.58-40.88,55.58
					c3.69,2.88,32.41-64.09,43.38-55.52c4.45,3.48-40.47,55.05-40.47,55.05s35.09-61.15,42.97-55c4.57,3.57-40.16,54.65-40.16,54.65
					c5.22,4.07,42.65-54.59,42.65-54.59c2.68,2.1-39.91,54.34-39.91,54.34c6.87,5.37,36.59-58.82,42.41-54.28l-39.74,54.11
					l42.23-54.05l-39.61,53.95c0,0,35.73-58.87,42.1-53.89c0,0-43.27,50.91-39.52,53.84c4.4,3.44,34.75-59.46,42.02-53.78
					c9.47,7.4-39.91,54.33-39.91,54.33c5,3.91,42.41-54.28,42.41-54.28c8.29,6.47-42.68,57.87-42.68,57.87
					c1.94,1.52,41.32-60.83,45.17-57.82c7.21,5.63-47.61,59.72-45.44,61.41c7.46,5.83,38.4-68.82,47.94-61.36
					c9.77,7.63-52.92,61.22-48.19,64.92c1.23,0.96,50.69-64.87,50.69-64.87c11.79,9.21-50.91,68.41-50.91,68.41
					s41.21-77.89,53.41-68.36c0,0-67.33,61.14-53.61,71.86c0,0,55.61-72.21,56.11-71.82c7.93,6.2-56.29,75.3-56.29,75.3l58.8-75.26
					c0,0-65.12,73.91-58.96,78.72c15.3,11.96,60.11-79.74,61.47-78.68c0,0-73.19,73.07-61.62,82.12
					c14.92,11.66,61-84.53,64.13-82.08c0,0-67.78,82.46-64.12,85.31c6.48,5.06,66.32-85.53,66.63-85.29
					c14.26,11.14-66.11,87.86-66.11,87.86c17.1,13.36,62.38-92.73,68.63-87.84c13.28,10.37-74.08,85.29-67.88,90.13
					c0,0,64.68-94.6,70.41-90.13c0,0-75.73,87.45-69.55,92.27c16.93,13.22,72.09-92.28,72.09-92.28s-86.55,82.34-71.18,94.35
					l73.73-94.36c0,0-84.82,87-72.78,96.4c3.74,2.93,75.34-96.43,75.34-96.43l-74.4,98.48c10.36,8.1,74.02-100.83,76.97-98.52
					c14.55,11.37-92.42,87.82-76.06,100.6c11.38,8.89,78.64-100.66,78.64-100.66s-94.39,89.87-77.8,102.83l80.41-102.92
					c7.36,5.75-79.71,105.27-79.71,105.27c9.17,7.17,82.34-105.38,82.34-105.38S61.5,237.34,67.47,242.01
					c14.16,11.07,65.05-123.63,84.64-108.33"/>
			</g>
		</g>
	</g>
</g>
<g>
	<g>
		<g>
			<path class="st1" d="M26.43,116.69c0.03,0.02,4.21-5.44,4.23-5.42c0.04,0.03-5.5,9.35-5.46,9.39c0.04,0.03,6.87-8.88,6.91-8.85
				c0.07,0.06-7.85,16.21-7.78,16.27c0.07,0.06,11.6-15.01,11.68-14.95c0.09,0.07-11.51,20.75-11.42,20.82
				c0.1,0.08,15.24-19.71,15.34-19.63c0.11,0.08-14.92,22.53-14.81,22.61c0.11,0.09,17.04-22.04,17.15-21.95
				c0.12,0.09-16.05,25.68-15.93,25.77c0.12,0.1,19.3-24.96,19.43-24.87c0.13,0.1-18.05,27.72-17.92,27.82
				c0.14,0.11,21.01-27.18,21.15-27.07c0.14,0.11-21.02,27.37-20.89,27.48c0.14,0.11,21.25-27.47,21.38-27.37
				c0.14,0.11-20.57,28.61-20.43,28.72c0.14,0.11,22.01-28.47,22.16-28.36c0.14,0.11-20.49,30.31-20.34,30.42
				c0.15,0.12,23.17-29.96,23.32-29.84c0.15,0.12-22.97,30.22-22.82,30.34c0.15,0.12,23.44-30.32,23.6-30.2
				c0.15,0.12-23.57,30.24-23.42,30.36c0.15,0.12,23.53-30.43,23.69-30.32c0.15,0.12-22.07,31.68-21.92,31.8
				c0.16,0.12,24.36-31.51,24.52-31.39c0.16,0.12-23.84,31.88-23.68,32c0.16,0.12,24.7-31.95,24.86-31.82
				c0.16,0.12-23.41,32.75-23.25,32.87c0.16,0.13,25.3-32.72,25.46-32.59c0.16,0.13-24.91,32.89-24.74,33.02
				c0.16,0.13,25.55-33.04,25.71-32.91c0.16,0.13-25.82,32.82-25.66,32.94c0.16,0.13,25.57-33.06,25.73-32.94
				c0.16,0.13-22.98,34.29-22.81,34.41c0.17,0.13,26.46-34.22,26.63-34.09c0.17,0.13-23.18,35.41-23.01,35.54
				c0.18,0.14,27.47-35.52,27.65-35.38c0.17,0.13-24.17,36.39-24,36.53c0.18,0.14,28.54-36.91,28.72-36.76
				c0.18,0.14-25.17,37.56-24.99,37.7c0.19,0.15,30.23-39.1,30.43-38.95c0.19,0.15-27.89,39.37-27.7,39.51
				c0.41,0.32,64.37-83.25,64.79-82.92c0.41,0.32-62.8,83.02-62.39,83.34c0.41,0.32,64.35-83.22,64.77-82.9
				c0.41,0.32-61.11,83.18-60.7,83.49c0.41,0.32,64.31-83.16,64.72-82.84c0.4,0.32-60.5,83.05-60.09,83.37
				c0.41,0.32,64.2-83.03,64.62-82.7c0.41,0.32-63.85,82.5-63.44,82.82c0.41,0.32,64.15-82.96,64.56-82.64
				c0.41,0.32-61.88,82.58-61.47,82.89c0.41,0.32,63.95-82.7,64.36-82.38c0.41,0.32-64.18,82.1-63.77,82.42
				c0.41,0.32,63.9-82.64,64.31-82.32c0.4,0.32-60.91,82.24-60.51,82.56c0.41,0.32,63.52-82.15,63.93-81.83
				c0.4,0.31-59.79,81.72-59.39,82.03c0.41,0.32,62.9-81.35,63.31-81.03c0.4,0.31-62.39,80.76-61.99,81.07
				c0.4,0.32,62.68-81.06,63.09-80.75c0.39,0.31-59.08,80.54-58.69,80.85c0.4,0.31,61.85-79.99,62.25-79.68
				c0.4,0.31-61.4,79.39-61,79.7c0.4,0.31,61.59-79.65,61.98-79.34c0.39,0.3-59.14,79.06-58.75,79.36
				c0.39,0.31,60.82-78.66,61.22-78.35c0.39,0.31-61.5,78.05-61.11,78.35c0.39,0.31,60.8-78.63,61.19-78.32
				c0.39,0.3-59.8,78.02-59.41,78.33c0.39,0.3,60.33-78.03,60.72-77.72c0.38,0.3-57.1,77.38-56.72,77.68
				c0.38,0.3,59.16-76.51,59.54-76.21c0.38,0.3-59.66,75.91-59.28,76.21c0.38,0.3,59.08-76.4,59.46-76.11
				c0.37,0.29-56.75,75.73-56.38,76.02c0.37,0.29,58.05-75.07,58.42-74.77c0.37,0.29-55.42,74.34-55.05,74.63
				c0.37,0.29,56.77-73.41,57.13-73.13c0.36,0.28-55.6,72.74-55.24,73.02c0.36,0.28,55.99-72.4,56.35-72.12
				c0.35,0.28-54.16,71.66-53.8,71.94c0.35,0.28,54.86-70.95,55.22-70.68c0.34,0.27-51.68,70.06-51.33,70.32
				c0.34,0.27,52.96-68.49,53.31-68.23c0.34,0.26-52.48,67.84-52.15,68.1c0.34,0.26,52.35-67.7,52.69-67.44
				c0.32,0.25-48.18,66.57-47.86,66.83c0.32,0.25,49.59-64.13,49.91-63.88c0.31,0.24-47.78,63.26-47.47,63.5
				c0.31,0.24,48.06-62.15,48.37-61.9c0.3,0.24-46.62,61.32-46.32,61.56c0.3,0.23,46.7-60.39,47-60.15
				c0.28,0.22-41.97,58.85-41.68,59.07c0.28,0.22,42.83-55.38,43.1-55.17c0.27,0.21-42.87,54.84-42.59,55.05
				c0.27,0.21,42.43-54.87,42.7-54.66c0.26,0.2-38.6,53.34-38.34,53.55c0.25,0.2,38.85-50.25,39.1-50.05
				c0.24,0.19-37.21,49.24-36.97,49.43c0.24,0.19,36.99-47.83,37.23-47.65c0.23,0.18-35.54,46.86-35.31,47.04
				c0.23,0.18,35.25-45.58,35.47-45.4c0.22,0.17-34.22,44.73-34,44.9c0.22,0.17,33.86-43.79,34.08-43.62
				c0.2,0.16-30.25,41.94-30.04,42.1c0.19,0.15,29.9-38.67,30.09-38.52c0.16,0.13-22.72,34.77-22.55,34.9
				c0.14,0.11,21.64-27.99,21.78-27.88c0.1,0.08-12.8,21.43-12.7,21.51c0.06,0.05,9.41-12.18,9.48-12.13"/>
			<path class="st1" d="M111.05,63.84c0.19,0.15,29.96-38.75,30.15-38.6c0.19,0.15-29.14,37.93-28.95,38.08
				c0.19,0.15,29.43-38.06,29.62-37.92c0.17,0.14-24.32,36.64-24.15,36.77c0.18,0.14,27.74-35.87,27.92-35.73
				c0.17,0.13-24.07,35.39-23.91,35.53c0.17,0.13,26.75-34.59,26.92-34.46c0.16,0.13-22.74,34.41-22.58,34.54
				c0.17,0.13,25.67-33.19,25.83-33.06c0.16,0.13-24.44,33.02-24.28,33.14c0.16,0.13,25.26-32.66,25.42-32.54
				c0.16,0.12-22.72,32.62-22.57,32.74c0.16,0.12,24.45-31.62,24.61-31.49c0.15,0.12-20.61,31.8-20.47,31.92
				c0.15,0.12,23.11-29.89,23.26-29.77c0.15,0.11-22.56,29.75-22.42,29.87c0.15,0.11,22.8-29.49,22.95-29.38
				c0.15,0.11-22.23,29.38-22.08,29.49c0.14,0.11,22.49-29.08,22.63-28.97c0.14,0.11-21.76,28.99-21.62,29.1
				c0.14,0.11,22.09-28.57,22.23-28.46c0.14,0.11-21.9,28.41-21.76,28.52c0.14,0.11,21.9-28.32,22.04-28.21
				c0.14,0.11-21.37,28.23-21.23,28.34c0.14,0.11,21.56-27.88,21.7-27.78c0.13,0.1-19.23,28.09-19.1,28.19
				c0.13,0.1,20.39-26.37,20.52-26.26c0.13,0.1-18.48,26.55-18.35,26.65c0.12,0.1,19.28-24.94,19.41-24.84
				c0.12,0.09-16.23,25.39-16.11,25.49c0.11,0.09,17.34-22.42,17.45-22.34c0.11,0.08-15.04,22.8-14.93,22.88
				c0.1,0.08,15.58-20.15,15.68-20.08c0.1,0.08-13.78,20.46-13.68,20.54c0.09,0.07,13.99-18.1,14.08-18.03
				c0.09,0.07-13.43,18.14-13.34,18.2c0.09,0.07,13.35-17.27,13.44-17.2c0.08,0.06-9.73,18.11-9.65,18.17
				c0.06,0.05,9.56-12.37,9.63-12.32c0.06,0.05-9.14,12.42-9.07,12.47c0.06,0.04,8.92-11.53,8.98-11.49
				c0.06,0.04-8.08,11.71-8.02,11.75c0.05,0.04,7.71-9.97,7.76-9.93c0.05,0.04-6.08,10.39-6.03,10.43c0.03,0.02,4.84-6.25,4.87-6.23
				"/>
			<path class="st1" d="M30.11,60.68c0.05,0.04,7.98-10.32,8.03-10.28c0.08,0.06-10.39,17.88-10.3,17.94
				c0.11,0.09,17.64-22.81,17.75-22.72c0.13,0.1-18.23,28.02-18.1,28.12c0.15,0.12,23.71-30.66,23.86-30.54
				C51.51,43.32,27.41,75.88,27.57,76c0.17,0.13,26.1-33.75,26.27-33.62c0.18,0.14-26.17,36.28-26,36.42
				c0.19,0.15,28.94-37.42,29.12-37.27c0.19,0.15-29.06,38.71-28.87,38.86c0.2,0.15,30.49-39.43,30.69-39.28
				c0.2,0.16-30.59,40.54-30.39,40.7c0.21,0.16,31.86-41.21,32.07-41.05c0.21,0.16-31.72,42.9-31.51,43.07
				c0.22,0.17,33.79-43.7,34.01-43.53c0.22,0.18-32.96,46.6-32.73,46.77c0.29,0.23,45.39-58.7,45.68-58.47
				c0.29,0.23-45.55,59.1-45.25,59.33c0.3,0.23,46.51-60.15,46.81-59.91c0.3,0.24-46.44,60.86-46.13,61.09
				c0.31,0.24,47.97-62.04,48.28-61.8c0.31,0.24-48.17,62.24-47.86,62.48c0.31,0.25,48.79-63.09,49.1-62.85
				c0.32,0.25-48.49,63.9-48.17,64.15c0.32,0.25,50.3-65.04,50.62-64.79c0.32,0.25-50.4,65.22-50.07,65.48
				c0.33,0.26,51.07-66.04,51.4-65.79c0.33,0.26-50.37,67.04-50.04,67.3c0.34,0.27,52.73-68.19,53.07-67.93
				C88,25.62,36.74,95.25,37.08,95.51c0.35,0.28,55.06-71.21,55.42-70.93c0.35,0.28-53.45,72.32-53.1,72.59
				c0.37,0.29,56.73-73.37,57.1-73.08c0.36,0.28-54.71,74.42-54.34,74.7c0.38,0.29,58.3-75.4,58.68-75.1
				c0.37,0.29-56.68,75.98-56.31,76.27c0.38,0.3,59.39-76.81,59.77-76.51c0.38,0.3-56.71,77.63-56.34,77.93
				c0.39,0.31,60.67-78.46,61.06-78.15c0.39,0.3-58.93,78.73-58.55,79.03c0.4,0.31,61.43-79.44,61.82-79.13
				c0.39,0.31-60.45,79.38-60.06,79.68c0.4,0.31,61.89-80.03,62.29-79.72c0.39,0.31-59.27,80.36-58.87,80.66
				c0.4,0.32,62.64-81.01,63.04-80.69c0.4,0.31-60.26,81.14-59.86,81.45c0.41,0.32,63.18-81.71,63.59-81.39
				c0.4,0.32-62.13,81.47-61.73,81.79c0.41,0.32,63.43-82.03,63.84-81.71c0.41,0.32-63.59,81.53-63.18,81.85
				c0.41,0.32,63.51-82.14,63.92-81.82c0.4,0.31-60.32,82.24-59.92,82.55c0.41,0.32,63.86-82.58,64.27-82.26
				c0.4,0.31-60.25,82.63-59.85,82.95c0.41,0.32,64.01-82.77,64.42-82.45c0.41,0.32-61.64,82.65-61.23,82.96
				c0.41,0.32,64.03-82.8,64.44-82.48c0.41,0.32-61.03,82.94-60.63,83.26c0.2,0.15,30.68-39.68,30.88-39.53
				c0.19,0.15-28.25,40.17-28.06,40.33c0.19,0.15,29-37.5,29.19-37.36c0.18,0.14-26.16,38.8-25.98,38.95
				c0.19,0.15,28.93-37.42,29.12-37.27C112.13,73,83,110.3,83.19,110.45c0.19,0.15,29.05-37.57,29.24-37.42
				c0.19,0.15-28.28,39.13-28.09,39.28c0.19,0.15,30.01-38.81,30.2-38.66c0.2,0.15-30.24,39.87-30.04,40.02
				c0.2,0.16,30.87-39.92,31.07-39.76"/>
		</g>
	</g>
</g>
</svg>
