<svg xmlns="http://www.w3.org/2000/svg" viewBox="0 0 374 374"><defs><style>.cls-1{fill:#f44225;}.cls-2{fill:#b52015;}.cls-3,.cls-4{fill:#b25e18;}.cls-3{opacity:0.82;}.cls-5{fill:#e27614;}</style></defs><g id="Layer_2" data-name="Layer 2"><g id="Layer_1-2" data-name="Layer 1"><circle class="cls-1" cx="187" cy="187" r="187"/><path class="cls-2" d="M71.18,187c0-84.82,69.72-160.69,161.22-174.3C221.89,11.13,205.32,5,194.31,5,87.42,5,6.54,92.44,6.54,187S80.11,365.53,187,365.53c11,0,34.89-2.66,45.4-4.23C140.9,347.69,71.18,271.82,71.18,187Z"/><circle class="cls-3" cx="202.78" cy="104.27" r="53.48"/><circle class="cls-4" cx="213.55" cy="296.66" r="30.4"/><circle class="cls-4" cx="138.71" cy="237.6" r="13.66"/><circle class="cls-4" cx="276.84" cy="218.74" r="40.21"/><circle class="cls-4" cx="314.94" cy="139.87" r="14.04"/><circle class="cls-5" cx="195.85" cy="104.27" r="53.48"/><circle class="cls-5" cx="272.61" cy="218.74" r="40.21"/><circle class="cls-5" cx="312.63" cy="139.87" r="14.04"/><circle class="cls-5" cx="210.09" cy="296.66" r="30.4"/><circle class="cls-5" cx="135.63" cy="237.6" r="13.66"/></g></g></svg>