<?xml version="1.0" encoding="utf-8"?>
<!-- Generator: Adobe Illustrator 26.0.1, SVG Export Plug-In . SVG Version: 6.00 Build 0)  -->
<svg version="1.1" id="Layer_1" xmlns="http://www.w3.org/2000/svg" xmlns:xlink="http://www.w3.org/1999/xlink" x="0px" y="0px"
	 viewBox="0 0 250 400" style="enable-background:new 0 0 250 400;" xml:space="preserve">
<style type="text/css">
	.st0{fill:#FFFF00;}
	.st1{fill:#F15A24;}
	.st2{fill:#FF0000;}
	.st3{fill:#E6E6E6;}
	.st4{fill:#B3B3B3;fill-opacity:0.51;}
	.st5{fill:#29ABE2;}
</style>
<path class="st0" d="M149.31,344.27c0,28.02-24.67,50.73-24.67,50.73s-24.67-22.71-24.67-50.73s24.67-50.73,24.67-50.73
	S149.31,316.25,149.31,344.27z"/>
<path class="st1" d="M141.89,339.94c0,19.53-17.2,35.37-17.2,35.37s-17.2-15.83-17.2-35.37s17.2-35.37,17.2-35.37
	S141.89,320.41,141.89,339.94z"/>
<path class="st0" d="M136.57,336.76c0,13.75-12.1,24.89-12.1,24.89s-12.1-11.14-12.1-24.89s12.1-24.89,12.1-24.89
	S136.57,323.01,136.57,336.76z"/>
<path class="st1" d="M131.82,333.2c0,7.64-6.72,13.83-6.72,13.83s-6.72-6.19-6.72-13.83s6.72-13.83,6.72-13.83
	S131.82,325.56,131.82,333.2z"/>
<path class="st2" d="M117.11,250.69c52.53,0,105.06,20.41,118.34,68.73c2.66-9.66,4.19-82.78,4.19-93.28
	c0-63.04-51.22-51.19-114.26-51.19S11.25,163.1,11.25,226.14c0,10.5,1.42,83.62,4.08,93.28C28.61,271.1,64.57,250.69,117.11,250.69z
	"/>
<rect x="103.67" y="293.54" class="st2" width="44.94" height="22.01"/>
<rect x="98.81" y="287.06" class="st2" width="54.67" height="19.92"/>
<path class="st3" d="M203.97,177.63c0,47.53-19.17,90.6-38.5,121.95c-11.19-4.45-24.77-7.05-39.41-7.05
	c-14.71,0-28.35,2.63-39.57,7.11c-19.34-31.36-38.54-74.45-38.54-122.01c0-32.54,8.98-62.99,20.85-89.02
	C91.92,37.93,125.97,4,125.97,4s33.58,33.47,56.68,83.57C194.75,113.83,203.97,144.65,203.97,177.63z"/>
<path class="st4" d="M191.7,188.41c0,40.26-16.87,82.16-33.24,108.72c-9.48-3.77-20.72-4.63-33.12-4.63
	c-12.46,0-23.85,1.3-33.36,5.1c-16.39-26.56-32.43-68.9-32.43-109.18c0-27.56,7.61-53.36,17.67-75.41
	c19.57-42.93,48.41-71.67,48.41-71.67s28.45,28.35,48.01,70.79C183.88,134.37,191.7,160.48,191.7,188.41z"/>
<path class="st2" d="M55.83,242.86c0,0,47.73-17.9,64.63-17.65c16.9,0.24,72.85,21.87,72.85,21.87l3.6-7.51
	c0,0-46.14-25.85-76.45-25.9S52.6,235.86,52.6,235.86L55.83,242.86z"/>
<path class="st2" d="M51.46,219.47c0,0,51.64-17.9,69.92-17.65c18.28,0.24,78.81,21.87,78.81,21.87l3.9-7.51
	c0,0-49.91-25.85-82.71-25.9c-32.79-0.04-73.42,22.19-73.42,22.19L51.46,219.47z"/>
<path class="st2" d="M182.65,87.57c-17.21,9.34-36.93,14.64-57.89,14.64c-20.17,0-39.19-4.91-55.93-13.6
	C91.92,37.93,125.97,4,125.97,4S159.55,37.47,182.65,87.57z"/>
<circle class="st2" cx="124.75" cy="126.07" r="17.84"/>
<circle class="st5" cx="124.64" cy="125.95" r="13.09"/>
<circle class="st2" cx="124.52" cy="166.6" r="17.84"/>
<circle class="st5" cx="124.64" cy="166.72" r="13.09"/>
</svg>
