<svg xmlns="http://www.w3.org/2000/svg" viewBox="0 0 1238.67 632.17"><defs><style>.cls-1{fill:none;}.cls-2{fill:#f4d311;}.cls-3{opacity:0.58;}.cls-4{fill:#a58f21;}.cls-5{fill:#f4802a;}.cls-6{fill:#964120;}</style></defs><g id="Layer_2" data-name="Layer 2"><g id="Layer_1-2" data-name="Layer 1"><path class="cls-1" d="M933.68,283.13c75.84-49.51,117.73-95.34,106.74-124.7S967.74,122,878,134.5a318.34,318.34,0,0,1,55.64,148.63Z"/><path class="cls-1" d="M305,349c-75.84,49.51-117.73,95.34-106.74,124.7s72.68,36.4,162.39,23.93A318.21,318.21,0,0,1,305,349Z"/><path class="cls-1" d="M305,349a318.21,318.21,0,0,0,55.65,148.63c81.45-11.32,186-38.74,296.67-80.17s207.52-89.42,276.38-134.37A318.34,318.34,0,0,0,878,134.5c-81.46,11.32-186,38.74-296.68,80.17S373.84,304.09,305,349Z"/><path class="cls-1" d="M842.08,91.86C757.18,7.62,627.89-24.54,508.54,20.15S312.8,174,304.1,293.28C382.12,254.07,471.54,215,568,178.89S757.5,113.54,842.08,91.86Z"/><path class="cls-1" d="M396.58,540.31c84.91,84.24,214.2,116.4,333.55,71.72S925.86,458.18,934.57,338.89c-78,39.21-167.44,78.29-263.87,114.4S481.17,518.64,396.58,540.31Z"/><path class="cls-2" d="M359.25,487.77c83.94-11.67,188.54-39.95,294.54-79.64s203.46-87.05,274.43-133.37l4.08-2.67a317.31,317.31,0,0,0-17-66.8C854.08,41.85,672-41,508.54,20.15S262.2,263.44,323.39,426.88a317.56,317.56,0,0,0,31,61.56Z"/><path class="cls-2" d="M674.21,462.65c-92.47,34.62-183,63.45-269.13,85.78C490,626.58,614.69,655.24,730.13,612S920.81,465.27,933.5,350.6C853.86,390.34,766.67,428,674.21,462.65Z"/><g class="cls-3"><path class="cls-4" d="M378.87,476.65c78.45-10.91,181.9-46,281-83.1s163.68-68.71,230-112l20-17c-3-20.91-3.6-31.3-11.31-51.9C841.33,59.89,671.14-17.57,518.39,39.61S288.17,267,345.36,419.75a296.69,296.69,0,0,0,29,57.53Z"/><path class="cls-4" d="M684.83,471.55c-86.41,32.35-163.47,57.13-244,78,79.33,73,188.77,84.62,296.66,44.23S903,472.72,914.83,365.55c-22.61,12.3-37.24,19.95-77,40C777.79,435.83,737.68,451.76,684.83,471.55Z"/></g><path class="cls-5" d="M842.08,91.86a313.53,313.53,0,0,1,36,42.64c89.7-12.47,151.39-5.42,162.38,23.93s-30.9,75.19-106.74,124.7C864.82,328.08,768,376.07,657.3,417.5s-215.22,68.85-296.67,80.17c-89.71,12.47-151.4,5.42-162.39-23.93S229.14,398.55,305,349a313.33,313.33,0,0,1-.88-55.76C106.34,392.65-18.17,492.81,2.17,547.15s180,48.09,394.41-6.84c84.59-21.67,177.69-50.92,274.12-87s185.85-75.19,263.87-114.4C1132.33,239.52,1256.84,139.36,1236.5,85S1056.48,36.93,842.08,91.86Z"/><path class="cls-6" d="M853.83,103.55a112.48,112.48,0,0,1,11.07,13c2.27,3.11,4.23,6.13,5.93,9,66-13,113.21-11.87,139-5,20.94,5.58,45.15,12.37,52,31,7.44,20.23-6.69,45.3-35,74-67.33,68.26-131,92-131,92-91.08,54-173.73,84.31-237,108-98.61,36.92-202.68,69.23-275,80-4.59.69-59.08,16.52-130,7-39.18-5.26-68.19-15.94-75-32-7.69-18.16-4.87-43.52,20-71,18.67-20.62,63.85-50.23,105-75-1-6.46-.6-7.87-.7-16.08a139.47,139.47,0,0,1,.7-14.92C127.28,391.2,50.18,472.43,67.48,518.64s135.65,58.76,326.35,8.91c75.24-19.67,185.08-53.83,271-86a2514.06,2514.06,0,0,0,235-102c176.56-87.65,290.3-178.79,273-225S1044.54,53.7,853.83,103.55Z"/></g></g></svg>