<?xml version="1.0" encoding="utf-8"?>
<!-- Generator: Adobe Illustrator 26.0.1, SVG Export Plug-In . SVG Version: 6.00 Build 0)  -->
<svg version="1.1" id="Layer_1" xmlns="http://www.w3.org/2000/svg" xmlns:xlink="http://www.w3.org/1999/xlink" x="0px" y="0px"
	 viewBox="0 0 400 400" style="enable-background:new 0 0 400 400;" xml:space="preserve">
<style type="text/css">
	.st0{fill:#CCCCCC;}
	.st1{fill:#B3B3B3;}
	.st2{opacity:0.82;fill:#999999;}
	.st3{fill:#999999;}
</style>
<circle class="st0" cx="196" cy="201" r="187"/>
<path class="st1" d="M80.18,201c0-84.82,69.72-160.69,161.22-174.3c-10.51-1.56-27.08-7.7-38.09-7.7
	C96.42,19,15.54,106.44,15.54,201S89.11,379.53,196,379.53c11.01,0,34.89-2.67,45.4-4.23C149.9,361.69,80.18,285.82,80.18,201z"/>
<circle class="st2" cx="211.78" cy="118.27" r="53.48"/>
<circle class="st3" cx="222.55" cy="310.66" r="30.4"/>
<circle class="st3" cx="147.71" cy="251.6" r="13.66"/>
<circle class="st3" cx="285.84" cy="232.74" r="40.21"/>
<circle class="st3" cx="323.94" cy="153.87" r="14.04"/>
<circle class="st1" cx="204.85" cy="118.27" r="53.48"/>
<circle class="st1" cx="281.61" cy="232.74" r="40.21"/>
<circle class="st1" cx="321.63" cy="153.87" r="14.04"/>
<circle class="st1" cx="219.09" cy="310.66" r="30.4"/>
<circle class="st1" cx="144.63" cy="251.6" r="13.66"/>
</svg>
